<svg width="20" height="20" viewBox="0 0 20 20" fill="none" xmlns="http://www.w3.org/2000/svg">
<path d="M10.9706 1.4853C10.9706 0.933015 10.5228 0.4853 9.97056 0.4853C9.41828 0.4853 8.97056 0.933015 8.97056 1.4853L8.97056 8.97058L1.48528 8.97058C0.932997 8.97058 0.485281 9.4183 0.485281 9.97058C0.485281 10.5229 0.932997 10.9706 1.48528 10.9706L8.97056 10.9706L8.97056 18.4559C8.97056 19.0081 9.41828 19.4559 9.97056 19.4559C10.5228 19.4559 10.9706 19.0081 10.9706 18.4559L10.9706 10.9706H18.4558C19.0081 10.9706 19.4558 10.5229 19.4558 9.97058C19.4558 9.4183 19.0081 8.97058 18.4558 8.97058H10.9706L10.9706 1.4853Z" fill="#2D3648"/>
</svg>
