<svg width="46" height="46" viewBox="0 0 46 46" fill="none" xmlns="http://www.w3.org/2000/svg">
<path fill-rule="evenodd" clip-rule="evenodd" d="M23 3.83333C17.7073 3.83333 13.4167 8.12394 13.4167 13.4167C13.4167 18.7094 17.7073 23 23 23C28.2927 23 32.5833 18.7094 32.5833 13.4167C32.5833 8.12394 28.2927 3.83333 23 3.83333ZM17.25 13.4167C17.25 10.241 19.8244 7.66667 23 7.66667C26.1756 7.66667 28.75 10.241 28.75 13.4167C28.75 16.5923 26.1756 19.1667 23 19.1667C19.8244 19.1667 17.25 16.5923 17.25 13.4167Z" fill="#2D3648"/>
<path d="M15.3333 26.8333C12.7917 26.8333 10.3541 27.843 8.55689 29.6402C6.75967 31.4375 5.75 33.875 5.75 36.4167V40.25C5.75 41.3085 6.60812 42.1667 7.66667 42.1667C8.72521 42.1667 9.58333 41.3085 9.58333 40.25V36.4167C9.58333 34.8917 10.1891 33.4291 11.2675 32.3508C12.3458 31.2725 13.8083 30.6667 15.3333 30.6667H30.6667C32.1917 30.6667 33.6542 31.2725 34.7325 32.3508C35.8109 33.4291 36.4167 34.8917 36.4167 36.4167V40.25C36.4167 41.3085 37.2748 42.1667 38.3333 42.1667C39.3919 42.1667 40.25 41.3085 40.25 40.25V36.4167C40.25 33.875 39.2403 31.4375 37.4431 29.6402C35.6459 27.843 33.2083 26.8333 30.6667 26.8333H15.3333Z" fill="#2D3648"/>
</svg>
