<svg width="60" height="60" viewBox="0 0 60 60" fill="none" xmlns="http://www.w3.org/2000/svg">
<path d="M23.5607 7.93934C22.9749 7.35355 22.0251 7.35355 21.4393 7.93934C20.8536 8.52513 20.8536 9.47487 21.4393 10.0607L28.9393 17.5607C29.5251 18.1464 30.4749 18.1464 31.0607 17.5607L38.5607 10.0607C39.1464 9.47487 39.1464 8.52513 38.5607 7.93934C37.9749 7.35355 37.0251 7.35355 36.4393 7.93934L30 14.3787L23.5607 7.93934Z" fill="#2D3648"/>
<path d="M23.5607 18.4393C22.9749 17.8536 22.0251 17.8536 21.4393 18.4393C20.8536 19.0251 20.8536 19.9749 21.4393 20.5607L28.9393 28.0607C29.5251 28.6464 30.4749 28.6464 31.0607 28.0607L38.5607 20.5607C39.1464 19.9749 39.1464 19.0251 38.5607 18.4393C37.9749 17.8536 37.0251 17.8536 36.4393 18.4393L30 24.8787L23.5607 18.4393Z" fill="#2D3648"/>
<path d="M36.4393 52.0607C37.0251 52.6464 37.9749 52.6464 38.5607 52.0607C39.1464 51.4749 39.1464 50.5251 38.5607 49.9393L31.0607 42.4393C30.4749 41.8536 29.5251 41.8536 28.9393 42.4393L21.4393 49.9393C20.8536 50.5251 20.8536 51.4749 21.4393 52.0607C22.0251 52.6464 22.9749 52.6464 23.5607 52.0607L30 45.6213L36.4393 52.0607Z" fill="#2D3648"/>
<path d="M36.4393 41.5607C37.0251 42.1464 37.9749 42.1464 38.5607 41.5607C39.1464 40.9749 39.1464 40.0251 38.5607 39.4393L31.0607 31.9393C30.4749 31.3536 29.5251 31.3536 28.9393 31.9393L21.4393 39.4393C20.8536 40.0251 20.8536 40.9749 21.4393 41.5607C22.0251 42.1464 22.9749 42.1464 23.5607 41.5607L30 35.1213L36.4393 41.5607Z" fill="#2D3648"/>
<path d="M7.93934 36.4393C7.35355 37.0251 7.35355 37.9749 7.93934 38.5607C8.52513 39.1464 9.47487 39.1464 10.0607 38.5607L17.5607 31.0607C18.1464 30.4749 18.1464 29.5251 17.5607 28.9393L10.0607 21.4393C9.47487 20.8536 8.52513 20.8536 7.93934 21.4393C7.35355 22.0251 7.35355 22.9749 7.93934 23.5607L14.3787 30L7.93934 36.4393Z" fill="#2D3648"/>
<path d="M18.4393 36.4393C17.8536 37.0251 17.8536 37.9749 18.4393 38.5607C19.0251 39.1464 19.9749 39.1464 20.5607 38.5607L28.0607 31.0607C28.6464 30.4749 28.6464 29.5251 28.0607 28.9393L20.5607 21.4393C19.9749 20.8536 19.0251 20.8536 18.4393 21.4393C17.8536 22.0251 17.8536 22.9749 18.4393 23.5607L24.8787 30L18.4393 36.4393Z" fill="#2D3648"/>
<path d="M52.0607 23.5607C52.6464 22.9749 52.6464 22.0251 52.0607 21.4393C51.4749 20.8536 50.5251 20.8536 49.9393 21.4393L42.4393 28.9393C41.8536 29.5251 41.8536 30.4749 42.4393 31.0607L49.9393 38.5607C50.5251 39.1464 51.4749 39.1464 52.0607 38.5607C52.6464 37.9749 52.6464 37.0251 52.0607 36.4393L45.6213 30L52.0607 23.5607Z" fill="#2D3648"/>
<path d="M41.5607 23.5607C42.1464 22.9749 42.1464 22.0251 41.5607 21.4393C40.9749 20.8536 40.0251 20.8536 39.4393 21.4393L31.9393 28.9393C31.3536 29.5251 31.3536 30.4749 31.9393 31.0607L39.4393 38.5607C40.0251 39.1464 40.9749 39.1464 41.5607 38.5607C42.1464 37.9749 42.1464 37.0251 41.5607 36.4393L35.1213 30L41.5607 23.5607Z" fill="#2D3648"/>
</svg>
