<svg width="40" height="40" viewBox="0 0 40 40" fill="none" xmlns="http://www.w3.org/2000/svg">
<path fill-rule="evenodd" clip-rule="evenodd" d="M20 13.3333C16.3181 13.3333 13.3333 16.3181 13.3333 20C13.3333 23.6819 16.3181 26.6667 20 26.6667C23.6819 26.6667 26.6667 23.6819 26.6667 20C26.6667 16.3181 23.6819 13.3333 20 13.3333ZM16.6667 20C16.6667 18.1591 18.1591 16.6667 20 16.6667C21.8409 16.6667 23.3333 18.1591 23.3333 20C23.3333 21.8409 21.8409 23.3333 20 23.3333C18.1591 23.3333 16.6667 21.8409 16.6667 20Z" fill="#2D3648"/>
<path fill-rule="evenodd" clip-rule="evenodd" d="M33.8581 25.6729L32.3333 25L33.8652 25.6566C33.9485 25.4624 34.0867 25.2967 34.2628 25.1801C34.4383 25.0639 34.6438 25.0013 34.8542 25H35C36.3261 25 37.5979 24.4732 38.5355 23.5355C39.4732 22.5979 40 21.3261 40 20C40 18.6739 39.4732 17.4021 38.5355 16.4645C37.5979 15.5268 36.3261 15 35 15H34.7208C34.5104 14.9987 34.3049 14.9361 34.1295 14.8199C34.0113 14.7416 33.9102 14.6413 33.8313 14.5251C33.8075 14.4115 33.7719 14.3005 33.7248 14.1937C33.6374 13.9957 33.6113 13.776 33.6499 13.563C33.6881 13.3524 33.7879 13.1578 33.9365 13.0038L34.0279 12.9125C34.4924 12.4483 34.8617 11.8964 35.1132 11.2897C35.3648 10.6827 35.4943 10.0321 35.4943 9.375C35.4943 8.71792 35.3648 8.06729 35.1132 7.4603C34.8618 6.85388 34.4934 6.3029 34.0292 5.83881C33.5648 5.37393 33.0134 5.00513 32.4064 4.75351C31.7994 4.50189 31.1487 4.37238 30.4917 4.37238C29.8346 4.37238 29.184 4.50189 28.577 4.75351C27.97 5.00513 27.4185 5.37393 26.9542 5.83881L26.8628 5.93018C26.7088 6.07881 26.5143 6.17855 26.3036 6.21675C26.0906 6.25537 25.871 6.22929 25.6729 6.1419L25.6566 6.13477C25.4624 6.05154 25.2967 5.91334 25.1801 5.73719C25.0639 5.56173 25.0013 5.35624 25 5.14583V5C25 3.67392 24.4732 2.40215 23.5355 1.46447C22.5979 0.526785 21.3261 0 20 0C18.6739 0 17.4021 0.526785 16.4645 1.46447C15.5268 2.40215 15 3.67392 15 5V5.27916C14.9987 5.48957 14.9361 5.69507 14.8199 5.87053C14.7416 5.98872 14.6413 6.08983 14.5251 6.16871C14.4115 6.19248 14.3005 6.22812 14.1937 6.27523C13.9957 6.36263 13.776 6.3887 13.563 6.35008C13.3524 6.31188 13.1578 6.21213 13.0038 6.06349L12.9125 5.97214C12.4481 5.50726 11.8967 5.13847 11.2897 4.88685C10.6827 4.63522 10.0321 4.50571 9.375 4.50571C8.71792 4.50571 8.06729 4.63522 7.4603 4.88685C6.85359 5.13835 6.30238 5.50692 5.83816 5.97149C5.37358 6.43572 5.00502 6.98693 4.75351 7.59363C4.50189 8.20062 4.37238 8.85126 4.37238 9.50833C4.37238 10.1654 4.50189 10.816 4.75351 11.423C5.00513 12.03 5.37393 12.5815 5.83881 13.0458L5.93016 13.1372C6.0788 13.2911 6.17855 13.4857 6.21675 13.6964C6.25537 13.9094 6.22929 14.129 6.1419 14.3271C6.12772 14.3592 6.11456 14.3917 6.10244 14.4247C6.0274 14.6287 5.89273 14.8054 5.71592 14.9319C5.54319 15.0554 5.33806 15.1254 5.12606 15.1333H5C3.67392 15.1333 2.40215 15.6601 1.46447 16.5978C0.526785 17.5355 0 18.8073 0 20.1333C0 21.4594 0.526785 22.7312 1.46447 23.6689C2.40215 24.6065 3.67392 25.1333 5 25.1333H5.27916C5.48957 25.1347 5.69507 25.1972 5.87053 25.3134C6.04668 25.4301 6.18487 25.5957 6.2681 25.7899L6.27523 25.8063C6.36263 26.0043 6.3887 26.224 6.35008 26.437C6.31188 26.6476 6.21214 26.8422 6.06352 26.9961L5.97214 27.0875C5.50726 27.5519 5.13847 28.1033 4.88685 28.7103C4.63522 29.3173 4.50571 29.9679 4.50571 30.625C4.50571 31.2821 4.63522 31.9327 4.88685 32.5397C5.13847 33.1467 5.50726 33.6981 5.97214 34.1625C6.43624 34.6268 6.98722 34.9951 7.59363 35.2465C8.20062 35.4981 8.85125 35.6276 9.50833 35.6276C10.1654 35.6276 10.816 35.4981 11.423 35.2465C12.0297 34.995 12.581 34.6264 13.0452 34.1618L13.1372 34.0699C13.2911 33.9212 13.4857 33.8215 13.6964 33.7833C13.9094 33.7446 14.129 33.7707 14.3271 33.8581C14.3592 33.8723 14.3917 33.8854 14.4247 33.8976C14.6287 33.9726 14.8054 34.1073 14.9319 34.2841C15.0554 34.4568 15.1254 34.6619 15.1333 34.8739V35C15.1333 36.3261 15.6601 37.5979 16.5978 38.5355C17.5355 39.4732 18.8072 40 20.1333 40C21.4594 40 22.7312 39.4732 23.6689 38.5355C24.6065 37.5979 25.1333 36.3261 25.1333 35V34.7208C25.1347 34.5104 25.1972 34.3049 25.3134 34.1295C25.4301 33.9533 25.5957 33.8151 25.7899 33.7319L25.8063 33.7248C26.0043 33.6374 26.224 33.6113 26.437 33.6499C26.6476 33.6881 26.8422 33.7879 26.9961 33.9365L27.0875 34.0279C27.5517 34.4924 28.1036 34.8616 28.7103 35.1132C29.3173 35.3648 29.9679 35.4943 30.625 35.4943C31.2821 35.4943 31.9327 35.3648 32.5397 35.1132C33.1464 34.8616 33.6976 34.4931 34.1618 34.0285C34.6264 33.5643 34.995 33.0131 35.2465 32.4064C35.4981 31.7994 35.6276 31.1487 35.6276 30.4917C35.6276 29.8346 35.4981 29.184 35.2465 28.577C34.995 27.9703 34.6264 27.419 34.1618 26.9548L34.0698 26.8628C33.9212 26.7088 33.8214 26.5143 33.7833 26.3036C33.7446 26.0906 33.7707 25.871 33.8581 25.6729ZM18.8215 3.82149C19.1341 3.50893 19.558 3.33333 20 3.33333C20.442 3.33333 20.8659 3.50893 21.1785 3.82149C21.4911 4.13405 21.6667 4.55797 21.6667 5V5.15L21.6667 5.15665C21.6701 6.018 21.9253 6.85954 22.4009 7.57769C22.8749 8.29335 23.5471 8.85533 24.3352 9.19502C25.1404 9.54847 26.0329 9.65352 26.8983 9.4966C27.7667 9.33916 28.5679 8.9252 29.1988 8.3081L29.2118 8.29517L29.3118 8.19517C29.4666 8.04021 29.6511 7.91663 29.8534 7.83276C30.0558 7.74888 30.2726 7.70571 30.4917 7.70571C30.7107 7.70571 30.9276 7.74888 31.1299 7.83276C31.3322 7.91663 31.516 8.03956 31.6708 8.19452L31.6721 8.19583C31.8271 8.35062 31.95 8.53444 32.0339 8.73677C32.1178 8.9391 32.161 9.15598 32.161 9.375C32.161 9.59402 32.1178 9.8109 32.0339 10.0132C31.95 10.2156 31.8271 10.3994 31.6721 10.5542L31.5715 10.6548L31.5586 10.6679C30.9415 11.2988 30.5275 12.1 30.3701 12.9683C30.2334 13.7222 30.2955 14.4966 30.5474 15.216C30.5672 15.3674 30.6077 15.5156 30.6681 15.6566C31.0074 16.4483 31.5708 17.1235 32.289 17.5991C33.0071 18.0747 33.8487 18.3299 34.71 18.3333L34.7167 18.3333H35C35.442 18.3333 35.8659 18.5089 36.1785 18.8215C36.4911 19.1341 36.6667 19.558 36.6667 20C36.6667 20.442 36.4911 20.8659 36.1785 21.1785C35.8659 21.4911 35.442 21.6667 35 21.6667L34.85 21.6667L34.8434 21.6667C33.982 21.6701 33.1405 21.9253 32.4223 22.4009C31.7066 22.8749 31.1446 23.5472 30.8049 24.3354C30.4515 25.1406 30.3465 26.033 30.5034 26.8983C30.6608 27.7667 31.0748 28.5679 31.6919 29.1988L31.7048 29.2119L31.8048 29.3119C31.9598 29.4666 32.0834 29.6511 32.1672 29.8534C32.2511 30.0558 32.2943 30.2726 32.2943 30.4917C32.2943 30.7107 32.2511 30.9276 32.1672 31.1299C32.0834 31.3322 31.9604 31.516 31.8055 31.6708L31.8042 31.6721C31.6494 31.8271 31.4656 31.95 31.2632 32.0339C31.0609 32.1178 30.844 32.161 30.625 32.161C30.406 32.161 30.1891 32.1178 29.9868 32.0339C29.7844 31.95 29.6006 31.8271 29.4458 31.6721L29.3452 31.5715L29.3321 31.5586C28.7012 30.9415 27.9 30.5275 27.0317 30.3701C26.1663 30.2132 25.2739 30.3182 24.4687 30.6716C23.6805 31.0112 23.0083 31.5733 22.5343 32.289C22.0587 33.0071 21.8034 33.8487 21.8 34.71L21.8 34.7167V35C21.8 35.442 21.6244 35.8659 21.3118 36.1785C20.9993 36.4911 20.5754 36.6667 20.1333 36.6667C19.6913 36.6667 19.2674 36.4911 18.9548 36.1785C18.6423 35.8659 18.4667 35.442 18.4667 35V34.85L18.4662 34.811C18.4455 33.925 18.1587 33.0658 17.6431 32.3449C17.1378 31.6384 16.4355 31.0968 15.6246 30.7876C14.8299 30.4481 13.9527 30.3491 13.1017 30.5034C12.2333 30.6608 11.4321 31.0748 10.8012 31.6919L10.7881 31.7048L10.6881 31.8048C10.5334 31.9598 10.3489 32.0834 10.1466 32.1672C9.94423 32.2511 9.72736 32.2943 9.50833 32.2943C9.28931 32.2943 9.07243 32.2511 8.8701 32.1672C8.66777 32.0834 8.48395 31.9604 8.32917 31.8055L8.32786 31.8042C8.1729 31.6494 8.04996 31.4656 7.96609 31.2632C7.88221 31.0609 7.83904 30.844 7.83904 30.625C7.83904 30.406 7.88221 30.1891 7.96609 29.9868C8.04996 29.7844 8.1729 29.6006 8.32786 29.4458L8.42851 29.3452L8.44144 29.3321C9.05853 28.7012 9.47249 27.9 9.62993 27.0317C9.78685 26.1663 9.6818 25.2738 9.32835 24.4685C8.98867 23.6804 8.42668 23.0082 7.71102 22.5343C6.99287 22.0587 6.15133 21.8034 5.28998 21.8L5.28333 21.8H5C4.55797 21.8 4.13405 21.6244 3.82149 21.3118C3.50893 20.9993 3.33333 20.5754 3.33333 20.1333C3.33333 19.6913 3.50893 19.2674 3.82149 18.9548C4.13405 18.6423 4.55797 18.4667 5 18.4667H5.15L5.18897 18.4662C6.07497 18.4455 6.93424 18.1587 7.65508 17.6431C8.36163 17.1378 8.90315 16.4355 9.21242 15.6246C9.55188 14.8299 9.65091 13.9527 9.4966 13.1017C9.33916 12.2333 8.9252 11.4321 8.3081 10.8012L8.29518 10.7882L8.19518 10.6882C8.04022 10.5334 7.91663 10.3489 7.83276 10.1466C7.74888 9.94424 7.70571 9.72736 7.70571 9.50833C7.70571 9.28931 7.74888 9.07243 7.83276 8.8701C7.91663 8.66777 8.03956 8.48395 8.19452 8.32917L8.19583 8.32786C8.35062 8.17289 8.53444 8.04996 8.73677 7.96609C8.9391 7.88221 9.15597 7.83904 9.375 7.83904C9.59403 7.83904 9.8109 7.88221 10.0132 7.96609C10.2156 8.04996 10.3994 8.17289 10.5542 8.32786L10.6548 8.42851L10.6679 8.44144C11.2987 9.05853 12.1 9.47249 12.9683 9.62993C13.7222 9.76663 14.4966 9.70453 15.216 9.45261C15.3674 9.43282 15.5156 9.3923 15.6566 9.3319C16.4483 8.99258 17.1235 8.42917 17.5991 7.71102C18.0747 6.99287 18.3299 6.15133 18.3333 5.28998L18.3333 5.28333V5C18.3333 4.55797 18.5089 4.13405 18.8215 3.82149Z" fill="#2D3648"/>
</svg>
